<svg viewBox="0 0 90 90" xmlns="http://www.w3.org/2000/svg"><path d="m8.73 41.64h72.53v39.5h-72.53z" fill="#fff"/><path d="m57.09 82.98v-27.05h15.11v27.05" fill="#c7c7c7"/><path d="m6.47 41.64v-19.54h77.06v19.54" fill="#ff8898"/><path d="m77.6 49.21a6.17 6.17 0 0 1 -5.93-6h-1.13a5.93 5.93 0 1 1 -11.86 0h-1.13a5.93 5.93 0 1 1 -11.85 0h-1.12a6.17 6.17 0 0 1 -5.93 6 6.17 6.17 0 0 1 -5.93-6h-1.13a6.17 6.17 0 0 1 -5.93 6 6.17 6.17 0 0 1 -5.93-6h-1.12a6.17 6.17 0 0 1 -5.93 6 6.42 6.42 0 0 1 -6.21-6v-1.57h77.06v1.57a6.17 6.17 0 0 1 -5.93 6z" fill="#e07885" fill-rule="evenodd"/><path d="m5.71 81.75h78.58v6.45h-78.58z" fill="#e6e6e6"/><path d="m17.8 56.11h30.97v18.33h-30.97z" fill="#94d5d2"/><path d="m23.84 1.8h42.32v14.18h-42.32z" fill="#ffeb97"/><g fill="#576065"><path d="m6.93 47.66h3.6v33.49h-3.6z"/><path d="m79.47 47.66h3.6v33.49h-3.6z"/><path d="m74 82.98h-3.6v-25.25h-11.51v25.25h-3.6v-28.85h18.71z"/><path d="m65.61 67.38h3.6v2.87h-3.6z"/><path d="m83.53 43.44a1.8 1.8 0 0 1 -1.8-1.8v-17.74h-73.46v17.74a1.8 1.8 0 0 1 -3.6 0v-19.54a1.8 1.8 0 0 1 1.8-1.8h77.06a1.8 1.8 0 0 1 1.8 1.8v19.54a1.8 1.8 0 0 1 -1.8 1.8z"/><path d="m77.6 51a7.66 7.66 0 0 1 -6.5-3.76 7.48 7.48 0 0 1 -13 0 7.48 7.48 0 0 1 -13 0 7.48 7.48 0 0 1 -13 0 7.48 7.48 0 0 1 -13 0 7.66 7.66 0 0 1 -6.42 3.76 8.23 8.23 0 0 1 -8-7.68v-3.48h80.65v3.38a8 8 0 0 1 -7.73 7.78zm-4.1-7.56a4.1 4.1 0 0 0 8.2 0zm-13 0a4.1 4.1 0 0 0 8.2 0zm-13 0a4.1 4.1 0 0 0 8.19 0zm-13 0a4.35 4.35 0 0 0 4.1 4 4.35 4.35 0 0 0 4.1-4zm-13 0a4.34 4.34 0 0 0 4.1 4 4.35 4.35 0 0 0 4.1-4zm-13.28 0a4.63 4.63 0 0 0 4.39 4 4.35 4.35 0 0 0 4.1-4z"/><path d="m17.1 22.1h3.6v21.05h-3.6z"/><path d="m30.18 22.1h3.6v21.05h-3.6z"/><path d="m56.35 22.1h3.6v21.05h-3.6z"/><path d="m69.43 22.1h3.6v21.05h-3.6z"/><path d="m43.2 22.1h3.6v21.05h-3.6z"/><path d="m84.29 90h-78.58a1.8 1.8 0 0 1 -1.8-1.8v-6.45a1.8 1.8 0 0 1 1.8-1.8h78.58a1.8 1.8 0 0 1 1.8 1.8v6.45a1.8 1.8 0 0 1 -1.8 1.8zm-76.78-3.6h75v-2.85h-75z"/><path d="m50.57 76.24h-34.57v-21.93h34.57zm-31-3.6h27.43v-14.73h-27.4z"/><path d="m30.18 16.92h3.6v5.92h-3.6z"/><path d="m56.35 16.92h3.6v7.84h-3.6z"/><path d="m66.16 17.78h-42.32a1.8 1.8 0 0 1 -1.84-1.78v-14.2a1.8 1.8 0 0 1 1.84-1.8h42.32a1.8 1.8 0 0 1 1.84 1.8v14.2a1.8 1.8 0 0 1 -1.84 1.78zm-40.52-3.6h38.72v-10.58h-38.72z"/><path d="m30.82 6.81h28.36v3.6h-28.36z"/></g></svg>